<?xml version="1.0" encoding="UTF-8" standalone="no"?>
<svg
   xmlns:dc="http://purl.org/dc/elements/1.1/"
   xmlns:cc="http://creativecommons.org/ns#"
   xmlns:rdf="http://www.w3.org/1999/02/22-rdf-syntax-ns#"
   xmlns:svg="http://www.w3.org/2000/svg"
   xmlns="http://www.w3.org/2000/svg"
   xmlns:sodipodi="http://sodipodi.sourceforge.net/DTD/sodipodi-0.dtd"
   xmlns:inkscape="http://www.inkscape.org/namespaces/inkscape"
   width="210mm"
   height="297mm"
   viewBox="0 0 210 297"
   version="1.1"
   id="svg8"
   inkscape:version="1.0.1 (0767f8302a, 2020-10-17)"
   sodipodi:docname="Percolation.svg">
  <defs
     id="defs2" />
  <sodipodi:namedview
     id="base"
     pagecolor="#ffffff"
     bordercolor="#666666"
     borderopacity="1.0"
     inkscape:pageopacity="0.0"
     inkscape:pageshadow="2"
     inkscape:zoom="1.4"
     inkscape:cx="479.77714"
     inkscape:cy="271.43403"
     inkscape:document-units="mm"
     inkscape:current-layer="layer1"
     inkscape:document-rotation="0"
     showgrid="false"
     inkscape:window-width="1866"
     inkscape:window-height="1016"
     inkscape:window-x="54"
     inkscape:window-y="27"
     inkscape:window-maximized="1"
     showguides="true"
     inkscape:guide-bbox="true">
    <sodipodi:guide
       position="88.938901,234.40509"
       orientation="1,0"
       id="guide980" />
    <sodipodi:guide
       position="74.760935,221.11193"
       orientation="1,0"
       id="guide1054" />
    <sodipodi:guide
       position="66.145832,237.75224"
       orientation="0,-1"
       id="guide1056" />
    <sodipodi:guide
       position="61.043153,229.34227"
       orientation="0,-1"
       id="guide1058" />
    <sodipodi:guide
       position="103.15553,265.91897"
       orientation="1,0"
       id="guide1062" />
    <sodipodi:guide
       position="117.06405,214.28009"
       orientation="1,0"
       id="guide1124" />
  </sodipodi:namedview>
  <metadata
     id="metadata5">
    <rdf:RDF>
      <cc:Work
         rdf:about="">
        <dc:format>image/svg+xml</dc:format>
        <dc:type
           rdf:resource="http://purl.org/dc/dcmitype/StillImage" />
        <dc:title></dc:title>
      </cc:Work>
    </rdf:RDF>
  </metadata>
  <g
     inkscape:label="Layer 1"
     inkscape:groupmode="layer"
     id="layer1">
    <g
       style="fill:none;stroke:currentColor;stroke-width:2.5;stroke-linecap:round;stroke-linejoin:round"
       id="g947-5-1-0-9"
       transform="matrix(0.41462714,0,0,0.41462714,115.40554,36.100341)">
      <path
         d="M 20,21 V 19 A 4,4 0 0 0 16,15 H 8 a 4,4 0 0 0 -4,4 v 2"
         id="path933-3-2-9-2" />
      <circle
         cx="12"
         cy="7"
         r="4"
         id="circle935-5-7-3-2" />
    </g>
    <g
       style="fill:none;stroke:currentColor;stroke-width:2.5;stroke-linecap:round;stroke-linejoin:round"
       id="g947-3-2-8"
       transform="matrix(0.41462714,0,0,0.41462714,115.40554,70.375667)">
      <path
         d="M 20,21 V 19 A 4,4 0 0 0 16,15 H 8 a 4,4 0 0 0 -4,4 v 2"
         id="path933-6-6-9" />
      <circle
         cx="12"
         cy="7"
         r="4"
         id="circle935-7-1-7" />
    </g>
    <g
       style="fill:none;stroke:currentColor;stroke-width:2.5;stroke-linecap:round;stroke-linejoin:round"
       id="g947-5-8-3"
       transform="matrix(0.41462714,0,0,0.41462714,115.40554,58.950561)">
      <path
         d="M 20,21 V 19 A 4,4 0 0 0 16,15 H 8 a 4,4 0 0 0 -4,4 v 2"
         id="path933-3-7-6" />
      <circle
         cx="12"
         cy="7"
         r="4"
         id="circle935-5-9-1" />
    </g>
    <g
       style="fill:none;stroke:currentColor;stroke-width:2.5;stroke-linecap:round;stroke-linejoin:round"
       id="g947-5-1-2-2"
       transform="matrix(0.41462714,0,0,0.41462714,115.2196,47.525449)">
      <path
         d="M 20,21 V 19 A 4,4 0 0 0 16,15 H 8 a 4,4 0 0 0 -4,4 v 2"
         id="path933-3-2-0-9" />
      <circle
         cx="12"
         cy="7"
         r="4"
         id="circle935-5-7-2-3" />
    </g>
    <g
       style="fill:none;stroke:currentColor;stroke-width:2.5;stroke-linecap:round;stroke-linejoin:round"
       id="g947-3-2-3-1"
       transform="matrix(0.41462714,0,0,0.41462714,115.40554,81.800783)">
      <path
         d="M 20,21 V 19 A 4,4 0 0 0 16,15 H 8 a 4,4 0 0 0 -4,4 v 2"
         id="path933-6-6-7-9" />
      <circle
         cx="12"
         cy="7"
         r="4"
         id="circle935-7-1-5-4" />
    </g>
    <g
       style="fill:none;stroke:currentColor;stroke-width:2.5;stroke-linecap:round;stroke-linejoin:round"
       id="g947-5-1-7"
       transform="matrix(0.41462714,0,0,0.41462714,115.40554,24.675228)">
      <path
         d="M 20,21 V 19 A 4,4 0 0 0 16,15 H 8 a 4,4 0 0 0 -4,4 v 2"
         id="path933-3-2-8" />
      <circle
         cx="12"
         cy="7"
         r="4"
         id="circle935-5-7-4" />
    </g>
    <g
       style="fill:none;stroke:currentColor;stroke-width:2.5;stroke-linecap:round;stroke-linejoin:round"
       id="g947-3-2-3-1-5"
       transform="matrix(0.41462714,0,0,0.41462714,115.40554,93.225902)">
      <path
         d="M 20,21 V 19 A 4,4 0 0 0 16,15 H 8 a 4,4 0 0 0 -4,4 v 2"
         id="path933-6-6-7-9-0" />
      <circle
         cx="12"
         cy="7"
         r="4"
         id="circle935-7-1-5-4-3" />
    </g>
    <g
       style="fill:none;stroke:currentColor;stroke-width:2.5;stroke-linecap:round;stroke-linejoin:round"
       id="g947-5-1-0-9-6"
       transform="matrix(0.41462714,0,0,0.41462714,101.49702,36.100342)">
      <path
         d="M 20,21 V 19 A 4,4 0 0 0 16,15 H 8 a 4,4 0 0 0 -4,4 v 2"
         id="path933-3-2-9-2-1" />
      <circle
         cx="12"
         cy="7"
         r="4"
         id="circle935-5-7-3-2-0" />
    </g>
    <g
       style="fill:none;stroke:currentColor;stroke-width:2.5;stroke-linecap:round;stroke-linejoin:round"
       id="g947-3-2-8-6"
       transform="matrix(0.41462714,0,0,0.41462714,101.49702,70.375666)">
      <path
         d="M 20,21 V 19 A 4,4 0 0 0 16,15 H 8 a 4,4 0 0 0 -4,4 v 2"
         id="path933-6-6-9-3" />
      <circle
         cx="12"
         cy="7"
         r="4"
         id="circle935-7-1-7-2" />
    </g>
    <g
       style="fill:none;stroke:currentColor;stroke-width:2.5;stroke-linecap:round;stroke-linejoin:round"
       id="g947-5-8-3-0"
       transform="matrix(0.41462714,0,0,0.41462714,101.49702,58.950561)">
      <path
         d="M 20,21 V 19 A 4,4 0 0 0 16,15 H 8 a 4,4 0 0 0 -4,4 v 2"
         id="path933-3-7-6-6" />
      <circle
         cx="12"
         cy="7"
         r="4"
         id="circle935-5-9-1-1" />
    </g>
    <g
       style="fill:none;stroke:currentColor;stroke-width:2.5;stroke-linecap:round;stroke-linejoin:round"
       id="g947-5-1-2-2-5"
       transform="matrix(0.41462714,0,0,0.41462714,101.31108,47.525449)">
      <path
         d="M 20,21 V 19 A 4,4 0 0 0 16,15 H 8 a 4,4 0 0 0 -4,4 v 2"
         id="path933-3-2-0-9-5" />
      <circle
         cx="12"
         cy="7"
         r="4"
         id="circle935-5-7-2-3-4" />
    </g>
    <g
       style="fill:none;stroke:currentColor;stroke-width:2.5;stroke-linecap:round;stroke-linejoin:round"
       id="g947-3-2-3-1-7"
       transform="matrix(0.41462714,0,0,0.41462714,101.49702,81.800784)">
      <path
         d="M 20,21 V 19 A 4,4 0 0 0 16,15 H 8 a 4,4 0 0 0 -4,4 v 2"
         id="path933-6-6-7-9-6" />
      <circle
         cx="12"
         cy="7"
         r="4"
         id="circle935-7-1-5-4-5" />
    </g>
    <g
       style="fill:none;stroke:currentColor;stroke-width:2.5;stroke-linecap:round;stroke-linejoin:round"
       id="g947-3-2-8-6-7"
       transform="matrix(0.41462714,0,0,0.41462714,87.280392,70.375666)">
      <path
         d="M 20,21 V 19 A 4,4 0 0 0 16,15 H 8 a 4,4 0 0 0 -4,4 v 2"
         id="path933-6-6-9-3-4" />
      <circle
         cx="12"
         cy="7"
         r="4"
         id="circle935-7-1-7-2-4" />
    </g>
    <g
       style="fill:none;stroke:currentColor;stroke-width:2.5;stroke-linecap:round;stroke-linejoin:round"
       id="g947-5-8-3-0-3"
       transform="matrix(0.41462714,0,0,0.41462714,87.280392,58.950561)">
      <path
         d="M 20,21 V 19 A 4,4 0 0 0 16,15 H 8 a 4,4 0 0 0 -4,4 v 2"
         id="path933-3-7-6-6-0" />
      <circle
         cx="12"
         cy="7"
         r="4"
         id="circle935-5-9-1-1-7" />
    </g>
    <g
       style="fill:none;stroke:currentColor;stroke-width:2.5;stroke-linecap:round;stroke-linejoin:round"
       id="g947-5-1-2-2-5-8"
       transform="matrix(0.41462714,0,0,0.41462714,87.094452,47.525448)">
      <path
         d="M 20,21 V 19 A 4,4 0 0 0 16,15 H 8 a 4,4 0 0 0 -4,4 v 2"
         id="path933-3-2-0-9-5-6" />
      <circle
         cx="12"
         cy="7"
         r="4"
         id="circle935-5-7-2-3-4-8" />
    </g>
    <g
       style="fill:#ff0000;stroke:currentColor;stroke-width:2.5;stroke-linecap:round;stroke-linejoin:round;fill-opacity:1"
       id="g947-5-8-3-0-5"
       transform="matrix(0.41462714,0,0,0.41462714,73.102426,58.950561)">
      <path
         d="M 20,21 V 19 A 4,4 0 0 0 16,15 H 8 a 4,4 0 0 0 -4,4 v 2"
         id="path933-3-7-6-6-04"
         style="fill:#ff0000;fill-opacity:1" />
      <circle
         cx="12"
         cy="7"
         r="4"
         id="circle935-5-9-1-1-8"
         style="fill:#ff0000;fill-opacity:1" />
    </g>
  </g>
</svg>
