<?xml version="1.0" encoding="UTF-8" standalone="no"?>
<svg
   xmlns:dc="http://purl.org/dc/elements/1.1/"
   xmlns:cc="http://creativecommons.org/ns#"
   xmlns:rdf="http://www.w3.org/1999/02/22-rdf-syntax-ns#"
   xmlns:svg="http://www.w3.org/2000/svg"
   xmlns="http://www.w3.org/2000/svg"
   xmlns:sodipodi="http://sodipodi.sourceforge.net/DTD/sodipodi-0.dtd"
   xmlns:inkscape="http://www.inkscape.org/namespaces/inkscape"
   width="210mm"
   height="297mm"
   viewBox="0 0 210 297"
   version="1.1"
   id="svg8"
   inkscape:version="1.0.1 (0767f8302a, 2020-10-17)"
   sodipodi:docname="Percolation_Stopped.svg">
  <defs
     id="defs2">
    <marker
       style="overflow:visible"
       id="marker8451"
       refX="0"
       refY="0"
       orient="auto"
       inkscape:stockid="Arrow2Mend"
       inkscape:isstock="true">
      <path
         transform="scale(-0.6)"
         d="M 8.7185878,4.0337352 -2.2072895,0.01601326 8.7185884,-4.0017078 c -1.7454984,2.3720609 -1.7354408,5.6174519 -6e-7,8.035443 z"
         style="fill:#141414;fill-opacity:1;fill-rule:evenodd;stroke:#141414;stroke-width:0.625;stroke-linejoin:round;stroke-opacity:1"
         id="path8449" />
    </marker>
    <marker
       style="overflow:visible"
       id="marker8441"
       refX="0"
       refY="0"
       orient="auto"
       inkscape:stockid="Arrow2Mend"
       inkscape:isstock="true">
      <path
         transform="scale(-0.6)"
         d="M 8.7185878,4.0337352 -2.2072895,0.01601326 8.7185884,-4.0017078 c -1.7454984,2.3720609 -1.7354408,5.6174519 -6e-7,8.035443 z"
         style="fill:#141414;fill-opacity:1;fill-rule:evenodd;stroke:#141414;stroke-width:0.625;stroke-linejoin:round;stroke-opacity:1"
         id="path8439" />
    </marker>
    <marker
       style="overflow:visible"
       id="marker8431"
       refX="0"
       refY="0"
       orient="auto"
       inkscape:stockid="Arrow2Mend"
       inkscape:isstock="true">
      <path
         transform="scale(-0.6)"
         d="M 8.7185878,4.0337352 -2.2072895,0.01601326 8.7185884,-4.0017078 c -1.7454984,2.3720609 -1.7354408,5.6174519 -6e-7,8.035443 z"
         style="fill:#141414;fill-opacity:1;fill-rule:evenodd;stroke:#141414;stroke-width:0.625;stroke-linejoin:round;stroke-opacity:1"
         id="path8429" />
    </marker>
    <marker
       style="overflow:visible"
       id="marker7301"
       refX="0"
       refY="0"
       orient="auto"
       inkscape:stockid="Arrow2Mend"
       inkscape:isstock="true">
      <path
         transform="scale(-0.6)"
         d="M 8.7185878,4.0337352 -2.2072895,0.01601326 8.7185884,-4.0017078 c -1.7454984,2.3720609 -1.7354408,5.6174519 -6e-7,8.035443 z"
         style="fill:#141414;fill-opacity:1;fill-rule:evenodd;stroke:#141414;stroke-width:0.625;stroke-linejoin:round;stroke-opacity:1"
         id="path7299" />
    </marker>
    <marker
       style="overflow:visible"
       id="marker7291"
       refX="0"
       refY="0"
       orient="auto"
       inkscape:stockid="Arrow2Mend"
       inkscape:isstock="true">
      <path
         transform="scale(-0.6)"
         d="M 8.7185878,4.0337352 -2.2072895,0.01601326 8.7185884,-4.0017078 c -1.7454984,2.3720609 -1.7354408,5.6174519 -6e-7,8.035443 z"
         style="fill:#141414;fill-opacity:1;fill-rule:evenodd;stroke:#141414;stroke-width:0.625;stroke-linejoin:round;stroke-opacity:1"
         id="path7289" />
    </marker>
    <marker
       style="overflow:visible"
       id="marker7281"
       refX="0"
       refY="0"
       orient="auto"
       inkscape:stockid="Arrow2Mend"
       inkscape:isstock="true">
      <path
         transform="scale(-0.6)"
         d="M 8.7185878,4.0337352 -2.2072895,0.01601326 8.7185884,-4.0017078 c -1.7454984,2.3720609 -1.7354408,5.6174519 -6e-7,8.035443 z"
         style="fill:#141414;fill-opacity:1;fill-rule:evenodd;stroke:#141414;stroke-width:0.625;stroke-linejoin:round;stroke-opacity:1"
         id="path7279" />
    </marker>
    <marker
       style="overflow:visible"
       id="marker6925"
       refX="0"
       refY="0"
       orient="auto"
       inkscape:stockid="Arrow2Mend"
       inkscape:isstock="true"
       inkscape:collect="always">
      <path
         transform="scale(-0.6)"
         d="M 8.7185878,4.0337352 -2.2072895,0.01601326 8.7185884,-4.0017078 c -1.7454984,2.3720609 -1.7354408,5.6174519 -6e-7,8.035443 z"
         style="fill:#141414;fill-opacity:1;fill-rule:evenodd;stroke:#141414;stroke-width:0.625;stroke-linejoin:round;stroke-opacity:1"
         id="path6923" />
    </marker>
    <marker
       style="overflow:visible"
       id="marker6915"
       refX="0"
       refY="0"
       orient="auto"
       inkscape:stockid="Arrow2Mend"
       inkscape:isstock="true"
       inkscape:collect="always">
      <path
         transform="scale(-0.6)"
         d="M 8.7185878,4.0337352 -2.2072895,0.01601326 8.7185884,-4.0017078 c -1.7454984,2.3720609 -1.7354408,5.6174519 -6e-7,8.035443 z"
         style="fill:#141414;fill-opacity:1;fill-rule:evenodd;stroke:#141414;stroke-width:0.625;stroke-linejoin:round;stroke-opacity:1"
         id="path6913" />
    </marker>
    <marker
       style="overflow:visible"
       id="marker6905"
       refX="0"
       refY="0"
       orient="auto"
       inkscape:stockid="Arrow2Mend"
       inkscape:isstock="true"
       inkscape:collect="always">
      <path
         transform="scale(-0.6)"
         d="M 8.7185878,4.0337352 -2.2072895,0.01601326 8.7185884,-4.0017078 c -1.7454984,2.3720609 -1.7354408,5.6174519 -6e-7,8.035443 z"
         style="fill:#141414;fill-opacity:1;fill-rule:evenodd;stroke:#141414;stroke-width:0.625;stroke-linejoin:round;stroke-opacity:1"
         id="path6903" />
    </marker>
    <marker
       style="overflow:visible"
       id="marker6483"
       refX="0"
       refY="0"
       orient="auto"
       inkscape:stockid="Arrow2Mend"
       inkscape:isstock="true">
      <path
         transform="scale(-0.6)"
         d="M 8.7185878,4.0337352 -2.2072895,0.01601326 8.7185884,-4.0017078 c -1.7454984,2.3720609 -1.7354408,5.6174519 -6e-7,8.035443 z"
         style="fill:#141414;fill-opacity:1;fill-rule:evenodd;stroke:#141414;stroke-width:0.625;stroke-linejoin:round;stroke-opacity:1"
         id="path6481" />
    </marker>
    <marker
       style="overflow:visible"
       id="marker6473"
       refX="0"
       refY="0"
       orient="auto"
       inkscape:stockid="Arrow2Mend"
       inkscape:isstock="true">
      <path
         transform="scale(-0.6)"
         d="M 8.7185878,4.0337352 -2.2072895,0.01601326 8.7185884,-4.0017078 c -1.7454984,2.3720609 -1.7354408,5.6174519 -6e-7,8.035443 z"
         style="fill:#141414;fill-opacity:1;fill-rule:evenodd;stroke:#141414;stroke-width:0.625;stroke-linejoin:round;stroke-opacity:1"
         id="path6471" />
    </marker>
    <marker
       style="overflow:visible"
       id="marker6463"
       refX="0"
       refY="0"
       orient="auto"
       inkscape:stockid="Arrow2Mend"
       inkscape:isstock="true">
      <path
         transform="scale(-0.6)"
         d="M 8.7185878,4.0337352 -2.2072895,0.01601326 8.7185884,-4.0017078 c -1.7454984,2.3720609 -1.7354408,5.6174519 -6e-7,8.035443 z"
         style="fill:#141414;fill-opacity:1;fill-rule:evenodd;stroke:#141414;stroke-width:0.625;stroke-linejoin:round;stroke-opacity:1"
         id="path6461" />
    </marker>
    <marker
       style="overflow:visible"
       id="marker6453"
       refX="0"
       refY="0"
       orient="auto"
       inkscape:stockid="Arrow2Mend"
       inkscape:isstock="true"
       inkscape:collect="always">
      <path
         transform="scale(-0.6)"
         d="M 8.7185878,4.0337352 -2.2072895,0.01601326 8.7185884,-4.0017078 c -1.7454984,2.3720609 -1.7354408,5.6174519 -6e-7,8.035443 z"
         style="fill:#141414;fill-opacity:1;fill-rule:evenodd;stroke:#141414;stroke-width:0.625;stroke-linejoin:round;stroke-opacity:1"
         id="path6451" />
    </marker>
    <marker
       style="overflow:visible"
       id="marker6443"
       refX="0"
       refY="0"
       orient="auto"
       inkscape:stockid="Arrow2Mend"
       inkscape:isstock="true"
       inkscape:collect="always">
      <path
         transform="scale(-0.6)"
         d="M 8.7185878,4.0337352 -2.2072895,0.01601326 8.7185884,-4.0017078 c -1.7454984,2.3720609 -1.7354408,5.6174519 -6e-7,8.035443 z"
         style="fill:#141414;fill-opacity:1;fill-rule:evenodd;stroke:#141414;stroke-width:0.625;stroke-linejoin:round;stroke-opacity:1"
         id="path6441" />
    </marker>
    <marker
       style="overflow:visible"
       id="marker6433"
       refX="0"
       refY="0"
       orient="auto"
       inkscape:stockid="Arrow2Mend"
       inkscape:isstock="true"
       inkscape:collect="always">
      <path
         transform="scale(-0.6)"
         d="M 8.7185878,4.0337352 -2.2072895,0.01601326 8.7185884,-4.0017078 c -1.7454984,2.3720609 -1.7354408,5.6174519 -6e-7,8.035443 z"
         style="fill:#141414;fill-opacity:1;fill-rule:evenodd;stroke:#141414;stroke-width:0.625;stroke-linejoin:round;stroke-opacity:1"
         id="path6431" />
    </marker>
    <marker
       style="overflow:visible"
       id="marker6423"
       refX="0"
       refY="0"
       orient="auto"
       inkscape:stockid="Arrow2Mend"
       inkscape:isstock="true">
      <path
         transform="scale(-0.6)"
         d="M 8.7185878,4.0337352 -2.2072895,0.01601326 8.7185884,-4.0017078 c -1.7454984,2.3720609 -1.7354408,5.6174519 -6e-7,8.035443 z"
         style="fill:#141414;fill-opacity:1;fill-rule:evenodd;stroke:#141414;stroke-width:0.625;stroke-linejoin:round;stroke-opacity:1"
         id="path6421" />
    </marker>
    <marker
       style="overflow:visible"
       id="marker6413"
       refX="0"
       refY="0"
       orient="auto"
       inkscape:stockid="Arrow2Mend"
       inkscape:isstock="true">
      <path
         transform="scale(-0.6)"
         d="M 8.7185878,4.0337352 -2.2072895,0.01601326 8.7185884,-4.0017078 c -1.7454984,2.3720609 -1.7354408,5.6174519 -6e-7,8.035443 z"
         style="fill:#141414;fill-opacity:1;fill-rule:evenodd;stroke:#141414;stroke-width:0.625;stroke-linejoin:round;stroke-opacity:1"
         id="path6411" />
    </marker>
    <marker
       style="overflow:visible"
       id="marker6403"
       refX="0"
       refY="0"
       orient="auto"
       inkscape:stockid="Arrow2Mend"
       inkscape:isstock="true">
      <path
         transform="scale(-0.6)"
         d="M 8.7185878,4.0337352 -2.2072895,0.01601326 8.7185884,-4.0017078 c -1.7454984,2.3720609 -1.7354408,5.6174519 -6e-7,8.035443 z"
         style="fill:#141414;fill-opacity:1;fill-rule:evenodd;stroke:#141414;stroke-width:0.625;stroke-linejoin:round;stroke-opacity:1"
         id="path6401" />
    </marker>
    <marker
       style="overflow:visible"
       id="marker6077"
       refX="0"
       refY="0"
       orient="auto"
       inkscape:stockid="Arrow2Mend"
       inkscape:isstock="true"
       inkscape:collect="always">
      <path
         transform="scale(-0.6)"
         d="M 8.7185878,4.0337352 -2.2072895,0.01601326 8.7185884,-4.0017078 c -1.7454984,2.3720609 -1.7354408,5.6174519 -6e-7,8.035443 z"
         style="fill:#141414;fill-opacity:1;fill-rule:evenodd;stroke:#141414;stroke-width:0.625;stroke-linejoin:round;stroke-opacity:1"
         id="path6075" />
    </marker>
    <marker
       style="overflow:visible"
       id="marker6067"
       refX="0"
       refY="0"
       orient="auto"
       inkscape:stockid="Arrow2Mend"
       inkscape:isstock="true"
       inkscape:collect="always">
      <path
         transform="scale(-0.6)"
         d="M 8.7185878,4.0337352 -2.2072895,0.01601326 8.7185884,-4.0017078 c -1.7454984,2.3720609 -1.7354408,5.6174519 -6e-7,8.035443 z"
         style="fill:#141414;fill-opacity:1;fill-rule:evenodd;stroke:#141414;stroke-width:0.625;stroke-linejoin:round;stroke-opacity:1"
         id="path6065" />
    </marker>
    <marker
       style="overflow:visible"
       id="marker6057"
       refX="0"
       refY="0"
       orient="auto"
       inkscape:stockid="Arrow2Mend"
       inkscape:isstock="true"
       inkscape:collect="always">
      <path
         transform="scale(-0.6)"
         d="M 8.7185878,4.0337352 -2.2072895,0.01601326 8.7185884,-4.0017078 c -1.7454984,2.3720609 -1.7354408,5.6174519 -6e-7,8.035443 z"
         style="fill:#141414;fill-opacity:1;fill-rule:evenodd;stroke:#141414;stroke-width:0.625;stroke-linejoin:round;stroke-opacity:1"
         id="path6055" />
    </marker>
    <marker
       style="overflow:visible"
       id="marker5821"
       refX="0"
       refY="0"
       orient="auto"
       inkscape:stockid="Arrow2Mend"
       inkscape:isstock="true"
       inkscape:collect="always">
      <path
         transform="scale(-0.6)"
         d="M 8.7185878,4.0337352 -2.2072895,0.01601326 8.7185884,-4.0017078 c -1.7454984,2.3720609 -1.7354408,5.6174519 -6e-7,8.035443 z"
         style="fill:#141414;fill-opacity:1;fill-rule:evenodd;stroke:#141414;stroke-width:0.625;stroke-linejoin:round;stroke-opacity:1"
         id="path5819" />
    </marker>
    <marker
       style="overflow:visible"
       id="marker5811"
       refX="0"
       refY="0"
       orient="auto"
       inkscape:stockid="Arrow2Mend"
       inkscape:isstock="true"
       inkscape:collect="always">
      <path
         transform="scale(-0.6)"
         d="M 8.7185878,4.0337352 -2.2072895,0.01601326 8.7185884,-4.0017078 c -1.7454984,2.3720609 -1.7354408,5.6174519 -6e-7,8.035443 z"
         style="fill:#141414;fill-opacity:1;fill-rule:evenodd;stroke:#141414;stroke-width:0.625;stroke-linejoin:round;stroke-opacity:1"
         id="path5809" />
    </marker>
    <marker
       style="overflow:visible"
       id="marker5801"
       refX="0"
       refY="0"
       orient="auto"
       inkscape:stockid="Arrow2Mend"
       inkscape:isstock="true"
       inkscape:collect="always">
      <path
         transform="scale(-0.6)"
         d="M 8.7185878,4.0337352 -2.2072895,0.01601326 8.7185884,-4.0017078 c -1.7454984,2.3720609 -1.7354408,5.6174519 -6e-7,8.035443 z"
         style="fill:#141414;fill-opacity:1;fill-rule:evenodd;stroke:#141414;stroke-width:0.625;stroke-linejoin:round;stroke-opacity:1"
         id="path5799" />
    </marker>
    <marker
       style="overflow:visible"
       id="marker5589"
       refX="0"
       refY="0"
       orient="auto"
       inkscape:stockid="Arrow2Mend"
       inkscape:isstock="true"
       inkscape:collect="always">
      <path
         transform="scale(-0.6)"
         d="M 8.7185878,4.0337352 -2.2072895,0.01601326 8.7185884,-4.0017078 c -1.7454984,2.3720609 -1.7354408,5.6174519 -6e-7,8.035443 z"
         style="fill:#141414;fill-opacity:1;fill-rule:evenodd;stroke:#141414;stroke-width:0.625;stroke-linejoin:round;stroke-opacity:1"
         id="path5587" />
    </marker>
    <marker
       style="overflow:visible"
       id="marker5579"
       refX="0"
       refY="0"
       orient="auto"
       inkscape:stockid="Arrow2Mend"
       inkscape:isstock="true"
       inkscape:collect="always">
      <path
         transform="scale(-0.6)"
         d="M 8.7185878,4.0337352 -2.2072895,0.01601326 8.7185884,-4.0017078 c -1.7454984,2.3720609 -1.7354408,5.6174519 -6e-7,8.035443 z"
         style="fill:#141414;fill-opacity:1;fill-rule:evenodd;stroke:#141414;stroke-width:0.625;stroke-linejoin:round;stroke-opacity:1"
         id="path5577" />
    </marker>
    <marker
       style="overflow:visible"
       id="marker5569"
       refX="0"
       refY="0"
       orient="auto"
       inkscape:stockid="Arrow2Mend"
       inkscape:isstock="true"
       inkscape:collect="always">
      <path
         transform="scale(-0.6)"
         d="M 8.7185878,4.0337352 -2.2072895,0.01601326 8.7185884,-4.0017078 c -1.7454984,2.3720609 -1.7354408,5.6174519 -6e-7,8.035443 z"
         style="fill:#141414;fill-opacity:1;fill-rule:evenodd;stroke:#141414;stroke-width:0.625;stroke-linejoin:round;stroke-opacity:1"
         id="path5567" />
    </marker>
    <marker
       style="overflow:visible"
       id="marker4851"
       refX="0"
       refY="0"
       orient="auto"
       inkscape:stockid="Arrow2Mend"
       inkscape:isstock="true">
      <path
         transform="scale(-0.6)"
         d="M 8.7185878,4.0337352 -2.2072895,0.01601326 8.7185884,-4.0017078 c -1.7454984,2.3720609 -1.7354408,5.6174519 -6e-7,8.035443 z"
         style="fill:#000000;fill-opacity:1;fill-rule:evenodd;stroke:#000000;stroke-width:0.625;stroke-linejoin:round;stroke-opacity:1"
         id="path4849" />
    </marker>
    <marker
       style="overflow:visible"
       id="marker4118"
       refX="0"
       refY="0"
       orient="auto"
       inkscape:stockid="Arrow2Mend"
       inkscape:isstock="true">
      <path
         transform="scale(-0.6)"
         d="M 8.7185878,4.0337352 -2.2072895,0.01601326 8.7185884,-4.0017078 c -1.7454984,2.3720609 -1.7354408,5.6174519 -6e-7,8.035443 z"
         style="fill:#000000;fill-opacity:1;fill-rule:evenodd;stroke:#000000;stroke-width:0.625;stroke-linejoin:round;stroke-opacity:1"
         id="path4116" />
    </marker>
    <marker
       style="overflow:visible"
       id="marker4098"
       refX="0"
       refY="0"
       orient="auto"
       inkscape:stockid="Arrow2Mend"
       inkscape:isstock="true">
      <path
         transform="scale(-0.6)"
         d="M 8.7185878,4.0337352 -2.2072895,0.01601326 8.7185884,-4.0017078 c -1.7454984,2.3720609 -1.7354408,5.6174519 -6e-7,8.035443 z"
         style="fill:#000000;fill-opacity:1;fill-rule:evenodd;stroke:#000000;stroke-width:0.625;stroke-linejoin:round;stroke-opacity:1"
         id="path4096" />
    </marker>
    <marker
       style="overflow:visible;"
       id="marker3333"
       refX="0.0"
       refY="0.0"
       orient="auto"
       inkscape:stockid="Arrow2Mend"
       inkscape:isstock="true">
      <path
         transform="scale(0.6) rotate(180) translate(0,0)"
         d="M 8.7185878,4.0337352 L -2.2072895,0.016013256 L 8.7185884,-4.0017078 C 6.9730900,-1.6296469 6.9831476,1.6157441 8.7185878,4.0337352 z "
         style="fill-rule:evenodd;stroke-width:0.625;stroke-linejoin:round;stroke:#000000;stroke-opacity:1;fill:#000000;fill-opacity:1"
         id="path3331" />
    </marker>
    <marker
       style="overflow:visible;"
       id="marker2769"
       refX="0.0"
       refY="0.0"
       orient="auto"
       inkscape:stockid="Arrow2Mend"
       inkscape:isstock="true">
      <path
         transform="scale(0.6) rotate(180) translate(0,0)"
         d="M 8.7185878,4.0337352 L -2.2072895,0.016013256 L 8.7185884,-4.0017078 C 6.9730900,-1.6296469 6.9831476,1.6157441 8.7185878,4.0337352 z "
         style="fill-rule:evenodd;stroke-width:0.625;stroke-linejoin:round;stroke:#000000;stroke-opacity:1;fill:#000000;fill-opacity:1"
         id="path2767" />
    </marker>
    <marker
       style="overflow:visible;"
       id="marker2759"
       refX="0.0"
       refY="0.0"
       orient="auto"
       inkscape:stockid="Arrow2Mend"
       inkscape:isstock="true">
      <path
         transform="scale(0.6) rotate(180) translate(0,0)"
         d="M 8.7185878,4.0337352 L -2.2072895,0.016013256 L 8.7185884,-4.0017078 C 6.9730900,-1.6296469 6.9831476,1.6157441 8.7185878,4.0337352 z "
         style="fill-rule:evenodd;stroke-width:0.625;stroke-linejoin:round;stroke:#000000;stroke-opacity:1;fill:#000000;fill-opacity:1"
         id="path2757" />
    </marker>
    <marker
       style="overflow:visible;"
       id="marker2579"
       refX="0.0"
       refY="0.0"
       orient="auto"
       inkscape:stockid="Arrow2Mend"
       inkscape:isstock="true">
      <path
         transform="scale(0.6) rotate(180) translate(0,0)"
         d="M 8.7185878,4.0337352 L -2.2072895,0.016013256 L 8.7185884,-4.0017078 C 6.9730900,-1.6296469 6.9831476,1.6157441 8.7185878,4.0337352 z "
         style="fill-rule:evenodd;stroke-width:0.625;stroke-linejoin:round;stroke:#000000;stroke-opacity:1;fill:#000000;fill-opacity:1"
         id="path2577" />
    </marker>
    <marker
       style="overflow:visible;"
       id="marker2569"
       refX="0.0"
       refY="0.0"
       orient="auto"
       inkscape:stockid="Arrow2Mend"
       inkscape:isstock="true">
      <path
         transform="scale(0.6) rotate(180) translate(0,0)"
         d="M 8.7185878,4.0337352 L -2.2072895,0.016013256 L 8.7185884,-4.0017078 C 6.9730900,-1.6296469 6.9831476,1.6157441 8.7185878,4.0337352 z "
         style="fill-rule:evenodd;stroke-width:0.625;stroke-linejoin:round;stroke:#000000;stroke-opacity:1;fill:#000000;fill-opacity:1"
         id="path2567" />
    </marker>
    <marker
       style="overflow:visible;"
       id="marker2559"
       refX="0.0"
       refY="0.0"
       orient="auto"
       inkscape:stockid="Arrow2Mend"
       inkscape:isstock="true">
      <path
         transform="scale(0.6) rotate(180) translate(0,0)"
         d="M 8.7185878,4.0337352 L -2.2072895,0.016013256 L 8.7185884,-4.0017078 C 6.9730900,-1.6296469 6.9831476,1.6157441 8.7185878,4.0337352 z "
         style="fill-rule:evenodd;stroke-width:0.625;stroke-linejoin:round;stroke:#000000;stroke-opacity:1;fill:#000000;fill-opacity:1"
         id="path2557" />
    </marker>
    <marker
       style="overflow:visible;"
       id="Arrow1Lend"
       refX="0.0"
       refY="0.0"
       orient="auto"
       inkscape:stockid="Arrow1Lend"
       inkscape:isstock="true">
      <path
         transform="scale(0.8) rotate(180) translate(12.5,0)"
         style="fill-rule:evenodd;stroke:#000000;stroke-width:1pt;stroke-opacity:1;fill:#000000;fill-opacity:1"
         d="M 0.0,0.0 L 5.0,-5.0 L -12.5,0.0 L 5.0,5.0 L 0.0,0.0 z "
         id="path1472" />
    </marker>
    <marker
       style="overflow:visible;"
       id="marker1922"
       refX="0.0"
       refY="0.0"
       orient="auto"
       inkscape:stockid="Arrow2Mend"
       inkscape:isstock="true">
      <path
         transform="scale(0.6) rotate(180) translate(0,0)"
         d="M 8.7185878,4.0337352 L -2.2072895,0.016013256 L 8.7185884,-4.0017078 C 6.9730900,-1.6296469 6.9831476,1.6157441 8.7185878,4.0337352 z "
         style="fill-rule:evenodd;stroke-width:0.625;stroke-linejoin:round;stroke:#000000;stroke-opacity:1;fill:#000000;fill-opacity:1"
         id="path1920" />
    </marker>
    <marker
       style="overflow:visible;"
       id="Arrow2Lend"
       refX="0.0"
       refY="0.0"
       orient="auto"
       inkscape:stockid="Arrow2Lend"
       inkscape:isstock="true">
      <path
         transform="scale(1.1) rotate(180) translate(1,0)"
         d="M 8.7185878,4.0337352 L -2.2072895,0.016013256 L 8.7185884,-4.0017078 C 6.9730900,-1.6296469 6.9831476,1.6157441 8.7185878,4.0337352 z "
         style="fill-rule:evenodd;stroke-width:0.625;stroke-linejoin:round;stroke:#000000;stroke-opacity:1;fill:#000000;fill-opacity:1"
         id="path1490" />
    </marker>
    <marker
       style="overflow:visible"
       id="Arrow1Lstart"
       refX="0.0"
       refY="0.0"
       orient="auto"
       inkscape:stockid="Arrow1Lstart"
       inkscape:isstock="true">
      <path
         transform="scale(0.8) translate(12.5,0)"
         style="fill-rule:evenodd;stroke:#000000;stroke-width:1pt;stroke-opacity:1;fill:#000000;fill-opacity:1"
         d="M 0.0,0.0 L 5.0,-5.0 L -12.5,0.0 L 5.0,5.0 L 0.0,0.0 z "
         id="path1469" />
    </marker>
  </defs>
  <sodipodi:namedview
     id="base"
     pagecolor="#ffffff"
     bordercolor="#666666"
     borderopacity="1.0"
     inkscape:pageopacity="0.0"
     inkscape:pageshadow="2"
     inkscape:zoom="2"
     inkscape:cx="414.38021"
     inkscape:cy="246.63381"
     inkscape:document-units="mm"
     inkscape:current-layer="layer2"
     inkscape:document-rotation="0"
     showgrid="false"
     inkscape:window-width="1866"
     inkscape:window-height="1016"
     inkscape:window-x="54"
     inkscape:window-y="27"
     inkscape:window-maximized="1"
     showguides="true"
     inkscape:guide-bbox="true" />
  <metadata
     id="metadata5">
    <rdf:RDF>
      <cc:Work
         rdf:about="">
        <dc:format>image/svg+xml</dc:format>
        <dc:type
           rdf:resource="http://purl.org/dc/dcmitype/StillImage" />
        <dc:title></dc:title>
      </cc:Work>
    </rdf:RDF>
  </metadata>
  <g
     inkscape:label="Personen"
     inkscape:groupmode="layer"
     id="layer1"
     style="display:inline">
    <g
       style="fill:#0090ff;stroke:currentColor;stroke-width:2.5;stroke-linecap:round;stroke-linejoin:round;fill-opacity:1"
       id="g947-5-1-0-9"
       transform="matrix(0.41462714,0,0,0.41462714,115.40554,36.100341)">
      <path
         d="M 20,21 V 19 A 4,4 0 0 0 16,15 H 8 a 4,4 0 0 0 -4,4 v 2"
         id="path933-3-2-9-2"
         style="fill:#0090ff;fill-opacity:1" />
      <circle
         cx="12"
         cy="7"
         r="4"
         id="circle935-5-7-3-2"
         style="fill:#0090ff;fill-opacity:1" />
    </g>
    <g
       style="fill:none;stroke:currentColor;stroke-width:2.5;stroke-linecap:round;stroke-linejoin:round;fill-opacity:1"
       id="g947-3-2-8"
       transform="matrix(0.41462714,0,0,0.41462714,115.40554,70.375667)">
      <path
         d="M 20,21 V 19 A 4,4 0 0 0 16,15 H 8 a 4,4 0 0 0 -4,4 v 2"
         id="path933-6-6-9"
         style="fill:none;fill-opacity:1" />
      <circle
         cx="12"
         cy="7"
         r="4"
         id="circle935-7-1-7"
         style="fill:none;fill-opacity:1" />
    </g>
    <g
       style="fill:none;stroke:currentColor;stroke-width:2.5;stroke-linecap:round;stroke-linejoin:round"
       id="g947-5-8-3"
       transform="matrix(0.41462714,0,0,0.41462714,115.40554,58.950561)">
      <path
         d="M 20,21 V 19 A 4,4 0 0 0 16,15 H 8 a 4,4 0 0 0 -4,4 v 2"
         id="path933-3-7-6" />
      <circle
         cx="12"
         cy="7"
         r="4"
         id="circle935-5-9-1" />
    </g>
    <g
       style="fill:#0090ff;stroke:currentColor;stroke-width:2.5;stroke-linecap:round;stroke-linejoin:round;fill-opacity:1"
       id="g947-5-1-2-2"
       transform="matrix(0.41462714,0,0,0.41462714,115.2196,47.525449)">
      <path
         d="M 20,21 V 19 A 4,4 0 0 0 16,15 H 8 a 4,4 0 0 0 -4,4 v 2"
         id="path933-3-2-0-9"
         style="fill:#0090ff;fill-opacity:1" />
      <circle
         cx="12"
         cy="7"
         r="4"
         id="circle935-5-7-2-3"
         style="fill:#0090ff;fill-opacity:1" />
    </g>
    <g
       style="fill:none;stroke:currentColor;stroke-width:2.5;stroke-linecap:round;stroke-linejoin:round;fill-opacity:1"
       id="g947-3-2-3-1"
       transform="matrix(0.41462714,0,0,0.41462714,115.40554,81.800783)">
      <path
         d="M 20,21 V 19 A 4,4 0 0 0 16,15 H 8 a 4,4 0 0 0 -4,4 v 2"
         id="path933-6-6-7-9"
         style="fill:none;fill-opacity:1" />
      <circle
         cx="12"
         cy="7"
         r="4"
         id="circle935-7-1-5-4"
         style="fill:none;fill-opacity:1" />
    </g>
    <g
       style="fill:none;stroke:currentColor;stroke-width:2.5;stroke-linecap:round;stroke-linejoin:round"
       id="g947-5-1-7"
       transform="matrix(0.41462714,0,0,0.41462714,115.40554,24.675228)">
      <path
         d="M 20,21 V 19 A 4,4 0 0 0 16,15 H 8 a 4,4 0 0 0 -4,4 v 2"
         id="path933-3-2-8" />
      <circle
         cx="12"
         cy="7"
         r="4"
         id="circle935-5-7-4" />
    </g>
    <g
       style="fill:none;stroke:currentColor;stroke-width:2.5;stroke-linecap:round;stroke-linejoin:round"
       id="g947-3-2-3-1-5"
       transform="matrix(0.41462714,0,0,0.41462714,115.40554,93.225902)">
      <path
         d="M 20,21 V 19 A 4,4 0 0 0 16,15 H 8 a 4,4 0 0 0 -4,4 v 2"
         id="path933-6-6-7-9-0" />
      <circle
         cx="12"
         cy="7"
         r="4"
         id="circle935-7-1-5-4-3" />
    </g>
    <g
       style="fill:#ff0000;stroke:currentColor;stroke-width:2.5;stroke-linecap:round;stroke-linejoin:round;fill-opacity:1"
       id="g947-5-1-0-9-6"
       transform="matrix(0.41462714,0,0,0.41462714,101.49702,36.100342)">
      <path
         d="M 20,21 V 19 A 4,4 0 0 0 16,15 H 8 a 4,4 0 0 0 -4,4 v 2"
         id="path933-3-2-9-2-1"
         style="fill:#ff0000;fill-opacity:1" />
      <circle
         cx="12"
         cy="7"
         r="4"
         id="circle935-5-7-3-2-0"
         style="fill:#ff0000;fill-opacity:1" />
    </g>
    <g
       style="fill:none;stroke:currentColor;stroke-width:2.5;stroke-linecap:round;stroke-linejoin:round;fill-opacity:1"
       id="g947-3-2-8-6"
       transform="matrix(0.41462714,0,0,0.41462714,101.49702,70.375666)">
      <path
         d="M 20,21 V 19 A 4,4 0 0 0 16,15 H 8 a 4,4 0 0 0 -4,4 v 2"
         id="path933-6-6-9-3"
         style="fill:none;fill-opacity:1" />
      <circle
         cx="12"
         cy="7"
         r="4"
         id="circle935-7-1-7-2"
         style="fill:none;fill-opacity:1" />
    </g>
    <g
       style="fill:none;stroke:currentColor;stroke-width:2.5;stroke-linecap:round;stroke-linejoin:round;fill-opacity:1"
       id="g947-5-8-3-0"
       transform="matrix(0.41462714,0,0,0.41462714,101.49702,58.950561)">
      <path
         d="M 20,21 V 19 A 4,4 0 0 0 16,15 H 8 a 4,4 0 0 0 -4,4 v 2"
         id="path933-3-7-6-6"
         style="fill:none;fill-opacity:1" />
      <circle
         cx="12"
         cy="7"
         r="4"
         id="circle935-5-9-1-1"
         style="fill:none;fill-opacity:1" />
    </g>
    <g
       style="fill:none;stroke:currentColor;stroke-width:2.5;stroke-linecap:round;stroke-linejoin:round"
       id="g947-5-1-2-2-5"
       transform="matrix(0.41462714,0,0,0.41462714,101.31108,47.525449)">
      <path
         d="M 20,21 V 19 A 4,4 0 0 0 16,15 H 8 a 4,4 0 0 0 -4,4 v 2"
         id="path933-3-2-0-9-5" />
      <circle
         cx="12"
         cy="7"
         r="4"
         id="circle935-5-7-2-3-4" />
    </g>
    <g
       style="fill:none;stroke:currentColor;stroke-width:2.5;stroke-linecap:round;stroke-linejoin:round"
       id="g947-3-2-3-1-7"
       transform="matrix(0.41462714,0,0,0.41462714,101.49702,81.800784)">
      <path
         d="M 20,21 V 19 A 4,4 0 0 0 16,15 H 8 a 4,4 0 0 0 -4,4 v 2"
         id="path933-6-6-7-9-6" />
      <circle
         cx="12"
         cy="7"
         r="4"
         id="circle935-7-1-5-4-5" />
    </g>
    <g
       style="fill:none;stroke:currentColor;stroke-width:2.5;stroke-linecap:round;stroke-linejoin:round;fill-opacity:1"
       id="g947-3-2-8-6-7"
       transform="matrix(0.41462714,0,0,0.41462714,87.280392,70.375666)">
      <path
         d="M 20,21 V 19 A 4,4 0 0 0 16,15 H 8 a 4,4 0 0 0 -4,4 v 2"
         id="path933-6-6-9-3-4"
         style="fill:none;fill-opacity:1" />
      <circle
         cx="12"
         cy="7"
         r="4"
         id="circle935-7-1-7-2-4"
         style="fill:none;fill-opacity:1" />
    </g>
    <g
       style="fill:#0090ff;stroke:currentColor;stroke-width:2.5;stroke-linecap:round;stroke-linejoin:round;fill-opacity:1"
       id="g947-5-8-3-0-3"
       transform="matrix(0.41462714,0,0,0.41462714,87.280392,58.950561)">
      <path
         d="M 20,21 V 19 A 4,4 0 0 0 16,15 H 8 a 4,4 0 0 0 -4,4 v 2"
         id="path933-3-7-6-6-0"
         style="fill:#0090ff;fill-opacity:1" />
      <circle
         cx="12"
         cy="7"
         r="4"
         id="circle935-5-9-1-1-7"
         style="fill:#0090ff;fill-opacity:1" />
    </g>
    <g
       style="fill:#ff0000;stroke:currentColor;stroke-width:2.5;stroke-linecap:round;stroke-linejoin:round;fill-opacity:1"
       id="g947-5-1-2-2-5-8"
       transform="matrix(0.41462714,0,0,0.41462714,87.094452,47.525448)">
      <path
         d="M 20,21 V 19 A 4,4 0 0 0 16,15 H 8 a 4,4 0 0 0 -4,4 v 2"
         id="path933-3-2-0-9-5-6"
         style="fill:#ff0000;fill-opacity:1" />
      <circle
         cx="12"
         cy="7"
         r="4"
         id="circle935-5-7-2-3-4-8"
         style="fill:#ff0000;fill-opacity:1" />
    </g>
    <g
       style="fill:#ff0000;fill-opacity:1;stroke:currentColor;stroke-width:2.5;stroke-linecap:round;stroke-linejoin:round"
       id="g947-5-8-3-0-5"
       transform="matrix(0.41462714,0,0,0.41462714,73.102426,58.950561)">
      <path
         d="M 20,21 V 19 A 4,4 0 0 0 16,15 H 8 a 4,4 0 0 0 -4,4 v 2"
         id="path933-3-7-6-6-04"
         style="fill:#ff0000;fill-opacity:1" />
      <circle
         cx="12"
         cy="7"
         r="4"
         id="circle935-5-9-1-1-8"
         style="fill:#ff0000;fill-opacity:1" />
    </g>
  </g>
  <g
     inkscape:groupmode="layer"
     id="layer2"
     inkscape:label="Pfeile"
     style="display:inline">
    <path
       style="display:inline;fill:none;stroke:#141414;stroke-width:0.25099999;stroke-linecap:round;stroke-linejoin:round;stroke-miterlimit:4;stroke-dasharray:1.00399997, 0.50199998000000001;stroke-dashoffset:0;stroke-opacity:1;marker-end:url(#marker8431)"
       d="m 81.918108,63.405501 5.027308,9.16e-4"
       id="path4479"
       sodipodi:nodetypes="cc" />
    <path
       style="display:inline;fill:none;stroke:#141414;stroke-width:0.25099999;stroke-linecap:round;stroke-linejoin:round;stroke-miterlimit:4;stroke-dasharray:1.00399997, 0.50199998000000001;stroke-dashoffset:0;stroke-opacity:1;marker-end:url(#marker8441)"
       d="m 81.913023,64.177589 5.211573,7.295207"
       id="path4483"
       sodipodi:nodetypes="cc" />
    <path
       style="display:inline;fill:none;stroke:#141414;stroke-width:0.25099999;stroke-linecap:round;stroke-linejoin:round;stroke-miterlimit:4;stroke-dasharray:1.00399997, 0.50199998000000001;stroke-dashoffset:0;stroke-opacity:1;marker-end:url(#marker8451)"
       d="m 81.930251,62.631055 5.211573,-7.295207"
       id="path4965"
       sodipodi:nodetypes="cc" />
    <path
       style="display:inline;fill:none;stroke:#141414;stroke-width:0.25099999;stroke-linecap:round;stroke-linejoin:miter;stroke-miterlimit:4;stroke-dasharray:1.00399997, 0.50199998000000001;stroke-dashoffset:0;stroke-opacity:1;marker-end:url(#marker5589)"
       d="m 96.205617,63.405501 5.027313,9.16e-4"
       id="path5561"
       sodipodi:nodetypes="cc" />
    <path
       style="display:inline;fill:none;stroke:#141414;stroke-width:0.251;stroke-linecap:round;stroke-linejoin:miter;stroke-miterlimit:4;stroke-dasharray:1.004, 0.502;stroke-dashoffset:0;stroke-opacity:1;marker-end:url(#marker5579)"
       d="m 96.205617,64.182115 5.211583,7.295207"
       id="path5563"
       sodipodi:nodetypes="cc" />
    <path
       style="display:inline;fill:none;stroke:#141414;stroke-width:0.25099999;stroke-linecap:round;stroke-linejoin:miter;stroke-miterlimit:4;stroke-dasharray:1.00399997, 0.50199998000000001;stroke-dashoffset:0;stroke-opacity:1;marker-end:url(#marker5569)"
       d="m 96.21776,62.631055 5.21158,-7.295207"
       id="path5565"
       sodipodi:nodetypes="cc" />
    <path
       style="display:inline;fill:none;stroke:#141414;stroke-width:0.25099999;stroke-linecap:round;stroke-linejoin:miter;stroke-miterlimit:4;stroke-dasharray:1.00399997, 0.50199998000000001;stroke-dashoffset:0;stroke-opacity:1;marker-end:url(#marker5821)"
       d="m 96.205617,51.763827 5.027313,9.16e-4"
       id="path5793"
       sodipodi:nodetypes="cc" />
    <path
       style="display:inline;fill:none;stroke:#141414;stroke-width:0.25099999;stroke-linecap:round;stroke-linejoin:miter;stroke-miterlimit:4;stroke-dasharray:1.00399997, 0.50199998000000001;stroke-dashoffset:0;stroke-opacity:1;marker-end:url(#marker5811)"
       d="m 96.200532,52.535915 5.211578,7.295207"
       id="path5795"
       sodipodi:nodetypes="cc" />
    <path
       style="display:inline;fill:none;stroke:#141414;stroke-width:0.25099999;stroke-linecap:round;stroke-linejoin:miter;stroke-miterlimit:4;stroke-dasharray:1.00399997, 0.50199998000000001;stroke-dashoffset:0;stroke-opacity:1;marker-end:url(#marker5801)"
       d="m 96.21776,50.989381 5.21158,-7.295207"
       id="path5797"
       sodipodi:nodetypes="cc" />
    <path
       style="display:inline;fill:none;stroke:#141414;stroke-width:0.25099999;stroke-linecap:round;stroke-linejoin:miter;stroke-miterlimit:4;stroke-dasharray:1.00399997, 0.50199998000000001;stroke-dashoffset:0;stroke-opacity:1;marker-end:url(#marker6077)"
       d="m 96.205617,73.988841 5.027313,9.16e-4"
       id="path6049"
       sodipodi:nodetypes="cc" />
    <path
       style="display:inline;fill:none;stroke:#141414;stroke-width:0.25099999;stroke-linecap:round;stroke-linejoin:miter;stroke-miterlimit:4;stroke-dasharray:1.00399997, 0.50199998000000001;stroke-dashoffset:0;stroke-opacity:1;marker-end:url(#marker6067)"
       d="m 96.200532,74.760929 5.211578,7.295207"
       id="path6051"
       sodipodi:nodetypes="cc" />
    <path
       style="display:inline;fill:none;stroke:#141414;stroke-width:0.25099999;stroke-linecap:round;stroke-linejoin:miter;stroke-miterlimit:4;stroke-dasharray:1.00399997, 0.50199998000000001;stroke-dashoffset:0;stroke-opacity:1;marker-end:url(#marker6057)"
       d="m 96.21776,73.214395 5.21158,-7.295207"
       id="path6053"
       sodipodi:nodetypes="cc" />
    <path
       style="display:inline;fill:none;stroke:#141414;stroke-width:0.25099999;stroke-linecap:round;stroke-linejoin:miter;stroke-opacity:1;marker-end:url(#marker6483);stroke-miterlimit:4;stroke-dasharray:1.00399997, 0.50199998000000001;stroke-dashoffset:0"
       d="m 110.49318,63.405501 5.02734,9.16e-4"
       id="path6383"
       sodipodi:nodetypes="cc" />
    <path
       style="display:inline;fill:none;stroke:#141414;stroke-width:0.25099999;stroke-linecap:round;stroke-linejoin:miter;stroke-opacity:1;marker-end:url(#marker6473);stroke-miterlimit:4;stroke-dasharray:1.00399997, 0.50199998000000001;stroke-dashoffset:0"
       d="m 110.4881,64.177589 5.2116,7.295207"
       id="path6385"
       sodipodi:nodetypes="cc" />
    <path
       style="display:inline;fill:none;stroke:#141414;stroke-width:0.25099999;stroke-linecap:round;stroke-linejoin:miter;stroke-opacity:1;marker-end:url(#marker6463);stroke-miterlimit:4;stroke-dasharray:1.00399997, 0.50199998000000001;stroke-dashoffset:0"
       d="m 110.50533,62.631055 5.2116,-7.295207"
       id="path6387"
       sodipodi:nodetypes="cc" />
    <path
       style="display:inline;fill:none;stroke:#141414;stroke-width:0.25099999;stroke-linecap:round;stroke-linejoin:miter;stroke-opacity:1;marker-end:url(#marker6453);stroke-miterlimit:4;stroke-dasharray:1.00399997, 0.50199998000000001;stroke-dashoffset:0"
       d="m 110.49318,51.763827 5.02734,9.16e-4"
       id="path6389"
       sodipodi:nodetypes="cc" />
    <path
       style="display:inline;fill:none;stroke:#141414;stroke-width:0.25099999;stroke-linecap:round;stroke-linejoin:miter;stroke-opacity:1;marker-end:url(#marker6443);stroke-miterlimit:4;stroke-dasharray:1.00399997, 0.50199998000000001;stroke-dashoffset:0"
       d="m 110.4881,52.535915 5.2116,7.295207"
       id="path6391"
       sodipodi:nodetypes="cc" />
    <path
       style="display:inline;fill:none;stroke:#141414;stroke-width:0.25099999;stroke-linecap:round;stroke-linejoin:miter;stroke-opacity:1;marker-end:url(#marker6433);stroke-miterlimit:4;stroke-dasharray:1.00399997, 0.50199998000000001;stroke-dashoffset:0"
       d="m 110.50533,50.989381 5.2116,-7.295207"
       id="path6393"
       sodipodi:nodetypes="cc" />
    <path
       style="display:inline;fill:none;stroke:#141414;stroke-width:0.25099999;stroke-linecap:round;stroke-linejoin:miter;stroke-opacity:1;marker-end:url(#marker6423);stroke-miterlimit:4;stroke-dasharray:1.00399997, 0.50199998000000001;stroke-dashoffset:0"
       d="m 110.49318,73.988841 5.02734,9.16e-4"
       id="path6395"
       sodipodi:nodetypes="cc" />
    <path
       style="display:inline;fill:none;stroke:#141414;stroke-width:0.25099999;stroke-linecap:round;stroke-linejoin:miter;stroke-opacity:1;marker-end:url(#marker6413);stroke-miterlimit:4;stroke-dasharray:1.00399997, 0.50199998000000001;stroke-dashoffset:0"
       d="m 110.4881,74.760929 5.2116,7.295207"
       id="path6397"
       sodipodi:nodetypes="cc" />
    <path
       style="display:inline;fill:none;stroke:#141414;stroke-width:0.25099999;stroke-linecap:round;stroke-linejoin:miter;stroke-opacity:1;marker-end:url(#marker6403);stroke-miterlimit:4;stroke-dasharray:1.00399997, 0.50199998000000001;stroke-dashoffset:0"
       d="m 110.50533,73.214395 5.2116,-7.295207"
       id="path6399"
       sodipodi:nodetypes="cc" />
    <path
       style="display:inline;fill:none;stroke:#141414;stroke-width:0.25099999;stroke-linecap:round;stroke-linejoin:miter;stroke-opacity:1;marker-end:url(#marker6925);stroke-miterlimit:4;stroke-dasharray:1.00399997, 0.50199998000000001;stroke-dashoffset:0"
       d="m 110.49318,40.122153 5.02734,9.16e-4"
       id="path6897"
       sodipodi:nodetypes="cc" />
    <path
       style="display:inline;fill:none;stroke:#141414;stroke-width:0.25099999;stroke-linecap:round;stroke-linejoin:miter;stroke-opacity:1;marker-end:url(#marker6915);stroke-miterlimit:4;stroke-dasharray:1.00399997, 0.50199998000000001;stroke-dashoffset:0"
       d="m 110.4881,40.894241 5.2116,7.295207"
       id="path6899"
       sodipodi:nodetypes="cc" />
    <path
       style="display:inline;fill:none;stroke:#141414;stroke-width:0.25099999;stroke-linecap:round;stroke-linejoin:miter;stroke-opacity:1;marker-end:url(#marker6905);stroke-miterlimit:4;stroke-dasharray:1.00399997, 0.50199998000000001;stroke-dashoffset:0"
       d="m 110.50533,39.347707 5.2116,-7.295207"
       id="path6901"
       sodipodi:nodetypes="cc" />
    <path
       style="display:inline;fill:none;stroke:#141414;stroke-width:0.25099999;stroke-linecap:round;stroke-linejoin:miter;stroke-opacity:1;marker-end:url(#marker7301);stroke-miterlimit:4;stroke-dasharray:1.00399997, 0.50199998000000001;stroke-dashoffset:0"
       d="m 110.49318,86.159682 5.02734,9.16e-4"
       id="path7273"
       sodipodi:nodetypes="cc" />
    <path
       style="display:inline;fill:none;stroke:#141414;stroke-width:0.25099999;stroke-linecap:round;stroke-linejoin:miter;stroke-opacity:1;marker-end:url(#marker7291);stroke-miterlimit:4;stroke-dasharray:1.00399997, 0.50199998000000001;stroke-dashoffset:0"
       d="m 110.4881,86.93177 5.2116,7.295207"
       id="path7275"
       sodipodi:nodetypes="cc" />
    <path
       style="display:inline;fill:none;stroke:#141414;stroke-width:0.25099999;stroke-linecap:round;stroke-linejoin:miter;stroke-opacity:1;marker-end:url(#marker7281);stroke-miterlimit:4;stroke-dasharray:1.00399997, 0.50199998000000001;stroke-dashoffset:0"
       d="m 110.50533,85.385236 5.2116,-7.295207"
       id="path7277"
       sodipodi:nodetypes="cc" />
  </g>
</svg>
